<svg xmlns="http://www.w3.org/2000/svg" viewBox="0 0 1180 610" width="100%" height="100%" style="background-color: #FFFFFF; font-family: system-ui, -apple-system, BlinkMacSystemFont, 'Segoe UI', Roboto, 'Helvetica Neue', Arial, sans-serif;">
  <defs>
    <!-- Background Blur Filter -->
    <filter id="bg-blur" x="-50%" y="-50%" width="200%" height="200%">
      <feGaussianBlur stdDeviation="110" />
    </filter>

    <!-- Card Shadow & Glow Filters -->
    <filter id="card-shadow" x="-10%" y="-10%" width="120%" height="120%">
      <feDropShadow dx="0" dy="12" stdDeviation="20" flood-color="#0F172A" flood-opacity="0.06"/>
    </filter>

    <filter id="glow-blue" x="-30%" y="-30%" width="160%" height="160%">
      <feGaussianBlur stdDeviation="4" result="blur" />
      <feComponentTransfer in="blur" result="glow">
        <feFuncA type="linear" slope="0.3"/>
      </feComponentTransfer>
      <feMerge>
        <feMergeNode in="glow" />
        <feMergeNode in="SourceGraphic" />
      </feMerge>
    </filter>

    <filter id="glow-light" x="-20%" y="-20%" width="140%" height="140%">
      <feGaussianBlur stdDeviation="1.5" result="blur" />
      <feMerge>
        <feMergeNode in="blur" />
        <feMergeNode in="SourceGraphic" />
      </feMerge>
    </filter>

    <!-- Noise Filter -->
    <filter id="noise-filter" x="0%" y="0%" width="100%" height="100%">
      <feTurbulence type="fractalNoise" baseFrequency="0.8" numOctaves="3" result="noise" />
      <feColorMatrix type="matrix" values="1 0 0 0 0  0 1 0 0 0  0 0 1 0 0  0 0 0 0.018 0" />
    </filter>

    <!-- Gradients -->
    <!-- ASCII Shifting Gradient (Blue -> Cyan) -->
    <linearGradient id="ascii-gradient" x1="0%" y1="0%" x2="100%" y2="100%">
      <stop offset="0%" stop-color="#2563EB"/>
      <stop offset="50%" stop-color="#06B6D4"/>
      <stop offset="100%" stop-color="#2563EB"/>
      <animate attributeName="x1" values="0%;100%;100%;0%;0%" dur="15s" repeatCount="indefinite"/>
      <animate attributeName="y1" values="0%;0%;100%;100%;0%" dur="15s" repeatCount="indefinite"/>
      <animate attributeName="x2" values="100%;100%;0%;0%;100%" dur="15s" repeatCount="indefinite"/>
      <animate attributeName="y2" values="100%;0%;0%;100%;100%" dur="15s" repeatCount="indefinite"/>
    </linearGradient>

    <!-- Name Shifting Gradient -->
    <linearGradient id="name-gradient" x1="0%" y1="0%" x2="100%" y2="0%">
      <stop offset="0%" stop-color="#2563EB"/>
      <stop offset="50%" stop-color="#06B6D4"/>
      <stop offset="100%" stop-color="#10B981"/>
      <animateTransform attributeName="gradientTransform" type="rotate" from="0 0.5 0.5" to="360 0.5 0.5" dur="10s" repeatCount="indefinite"/>
    </linearGradient>

    <!-- Border Shimmer Gradients -->
    <linearGradient id="border-shimmer-left" x1="0%" y1="0%" x2="100%" y2="100%">
      <stop offset="0%" stop-color="#2563EB" stop-opacity="0.5"/>
      <stop offset="50%" stop-color="#06B6D4" stop-opacity="0.1"/>
      <stop offset="100%" stop-color="#10B981" stop-opacity="0.5"/>
      <animateTransform attributeName="gradientTransform" type="rotate" from="0 0.5 0.5" to="360 0.5 0.5" dur="8s" repeatCount="indefinite"/>
    </linearGradient>

    <linearGradient id="border-shimmer-right" x1="0%" y1="0%" x2="100%" y2="100%">
      <stop offset="0%" stop-color="#10B981" stop-opacity="0.5"/>
      <stop offset="50%" stop-color="#2563EB" stop-opacity="0.1"/>
      <stop offset="100%" stop-color="#06B6D4" stop-opacity="0.5"/>
      <animateTransform attributeName="gradientTransform" type="rotate" from="360 0.5 0.5" to="0 0.5 0.5" dur="10s" repeatCount="indefinite"/>
    </linearGradient>

    <linearGradient id="canvas-border-gradient" x1="0%" y1="0%" x2="100%" y2="100%">
      <stop offset="0%" stop-color="#2563EB" stop-opacity="0.3"/>
      <stop offset="50%" stop-color="#06B6D4" stop-opacity="0.05"/>
      <stop offset="100%" stop-color="#10B981" stop-opacity="0.3"/>
      <animateTransform attributeName="gradientTransform" type="rotate" from="0 0.5 0.5" to="360 0.5 0.5" dur="15s" repeatCount="indefinite"/>
    </linearGradient>

    <!-- Card Glass Reflection Gradient -->
    <linearGradient id="card-reflection" x1="0%" y1="0%" x2="100%" y2="100%">
      <stop offset="0%" stop-color="#ffffff" stop-opacity="0.15"/>
      <stop offset="25%" stop-color="#ffffff" stop-opacity="0.05"/>
      <stop offset="26%" stop-color="#ffffff" stop-opacity="0"/>
      <stop offset="100%" stop-color="#ffffff" stop-opacity="0"/>
    </linearGradient>

    <radialGradient id="bg-vignette" cx="50%" cy="50%" r="70%">
      <stop offset="0%" stop-color="#FFFFFF" stop-opacity="0"/>
      <stop offset="100%" stop-color="#F1F5F9" stop-opacity="0.45"/>
    </radialGradient>

    <!-- Grid Pattern -->
    <pattern id="grid-pattern" width="22" height="22" patternUnits="userSpaceOnUse">
      <path d="M 22 0 L 0 0 0 22" fill="none" stroke="rgba(15, 23, 42, 0.015)" stroke-width="1"/>
    </pattern>

    <!-- Left side command reveal clip-path -->
    <clipPath id="cmd-clip">
      <rect x="70" y="440" width="0" height="25">
        <animate attributeName="width" from="0" to="300" dur="0.4s" begin="0.1s" fill="freeze"/>
      </rect>
    </clipPath>

    <!-- ASCII Line Reveal Clip Paths -->
    <clipPath id="ascii-clip-1"><rect x="40" y="150" width="0" height="20"><animate attributeName="width" from="0" to="400" dur="0.15s" begin="0.50s" fill="freeze"/></rect></clipPath>
    <clipPath id="ascii-clip-2"><rect x="40" y="166" width="0" height="20"><animate attributeName="width" from="0" to="400" dur="0.15s" begin="0.56s" fill="freeze"/></rect></clipPath>
    <clipPath id="ascii-clip-3"><rect x="40" y="182" width="0" height="20"><animate attributeName="width" from="0" to="400" dur="0.15s" begin="0.62s" fill="freeze"/></rect></clipPath>
    <clipPath id="ascii-clip-4"><rect x="40" y="198" width="0" height="20"><animate attributeName="width" from="0" to="400" dur="0.15s" begin="0.68s" fill="freeze"/></rect></clipPath>
    <clipPath id="ascii-clip-5"><rect x="40" y="214" width="0" height="20"><animate attributeName="width" from="0" to="400" dur="0.15s" begin="0.74s" fill="freeze"/></rect></clipPath>
    <clipPath id="ascii-clip-6"><rect x="40" y="230" width="0" height="20"><animate attributeName="width" from="0" to="400" dur="0.15s" begin="0.80s" fill="freeze"/></rect></clipPath>
    <clipPath id="ascii-clip-7"><rect x="40" y="246" width="0" height="20"><animate attributeName="width" from="0" to="400" dur="0.15s" begin="0.86s" fill="freeze"/></rect></clipPath>
    <clipPath id="ascii-clip-8"><rect x="40" y="262" width="0" height="20"><animate attributeName="width" from="0" to="400" dur="0.15s" begin="0.92s" fill="freeze"/></rect></clipPath>
    <clipPath id="ascii-clip-9"><rect x="40" y="278" width="0" height="20"><animate attributeName="width" from="0" to="400" dur="0.15s" begin="0.98s" fill="freeze"/></rect></clipPath>
    <clipPath id="ascii-clip-10"><rect x="40" y="294" width="0" height="20"><animate attributeName="width" from="0" to="400" dur="0.15s" begin="1.04s" fill="freeze"/></rect></clipPath>
    <clipPath id="ascii-clip-11"><rect x="40" y="310" width="0" height="20"><animate attributeName="width" from="0" to="400" dur="0.15s" begin="1.10s" fill="freeze"/></rect></clipPath>
    <clipPath id="ascii-clip-12"><rect x="40" y="326" width="0" height="20"><animate attributeName="width" from="0" to="400" dur="0.15s" begin="1.16s" fill="freeze"/></rect></clipPath>
    <clipPath id="ascii-clip-13"><rect x="40" y="342" width="0" height="20"><animate attributeName="width" from="0" to="400" dur="0.15s" begin="1.22s" fill="freeze"/></rect></clipPath>

    <!-- Typing Carousel Clip Paths -->
    <clipPath id="phrase-clip-1"><rect x="528" y="175" width="0" height="25"><animate attributeName="width" values="0; 165; 165; 0; 0; 0" keyTimes="0; 0.06; 0.14; 0.18; 0.20; 1" dur="20s" repeatCount="indefinite" /></rect></clipPath>
    <clipPath id="phrase-clip-2"><rect x="528" y="175" width="0" height="25"><animate attributeName="width" values="0; 0; 192; 192; 0; 0" keyTimes="0; 0.20; 0.26; 0.34; 0.38; 1" dur="20s" repeatCount="indefinite" /></rect></clipPath>
    <clipPath id="phrase-clip-3"><rect x="528" y="175" width="0" height="25"><animate attributeName="width" values="0; 0; 222; 222; 0; 0" keyTimes="0; 0.40; 0.46; 0.54; 0.58; 1" dur="20s" repeatCount="indefinite" /></rect></clipPath>
    <clipPath id="phrase-clip-4"><rect x="528" y="175" width="0" height="25"><animate attributeName="width" values="0; 0; 110; 110; 0; 0" keyTimes="0; 0.60; 0.66; 0.74; 0.78; 1" dur="20s" repeatCount="indefinite" /></rect></clipPath>
    <clipPath id="phrase-clip-5"><rect x="528" y="175" width="0" height="25"><animate attributeName="width" values="0; 0; 126; 126; 0; 0" keyTimes="0; 0.80; 0.86; 0.94; 0.98; 1" dur="20s" repeatCount="indefinite" /></rect></clipPath>

    <!-- Embedded CSS for Hover Effects & Fonts -->
    <style>
      .skill-pill {
        transition: transform 0.3s cubic-bezier(0.16, 1, 0.3, 1);
        transform-origin: center;
        transform-box: fill-box;
      }
      .skill-pill rect {
        fill: #f8fafc;
        fill-opacity: 0.75;
        stroke: rgba(15, 23, 42, 0.08);
        stroke-width: 1px;
        transition: all 0.3s cubic-bezier(0.16, 1, 0.3, 1);
      }
      .skill-pill text {
        fill: #475569;
        transition: all 0.3s cubic-bezier(0.16, 1, 0.3, 1);
      }
      .skill-pill:hover {
        transform: scale(1.08);
      }
      .skill-pill:hover rect {
        stroke: #2563EB;
        fill: rgba(37, 99, 235, 0.04);
        fill-opacity: 0.9;
        filter: url(#glow-blue);
      }
      .skill-pill:hover text {
        fill: #0f172a;
      }

      .social-icon {
        transition: all 0.3s cubic-bezier(0.16, 1, 0.3, 1);
        cursor: pointer;
        transform-origin: 12px 12px;
        transform-box: fill-box;
      }
      .social-icon circle {
        fill: rgba(15, 23, 42, 0.02);
        stroke: rgba(15, 23, 42, 0.05);
        stroke-width: 1px;
        transition: all 0.3s cubic-bezier(0.16, 1, 0.3, 1);
      }
      .social-icon path {
        fill: #475569;
        transition: all 0.3s cubic-bezier(0.16, 1, 0.3, 1);
      }
      .social-icon:hover {
        transform: scale(1.15);
      }
      .social-icon:hover circle {
        fill: rgba(37, 99, 235, 0.06);
        stroke: rgba(37, 99, 235, 0.35);
        filter: url(#glow-blue);
      }
      .social-icon:hover path {
        fill: #2563EB;
      }
    </style>
  </defs>

  <!-- Background Base -->
  <rect width="1180" height="610" rx="16" fill="#FFFFFF"/>

  <!-- Background Animated Radial Glows -->
  <g filter="url(#bg-blur)">
    <!-- Blue Glow -->
    <circle cx="250" cy="220" r="180" fill="#2563EB" opacity="0.04">
      <animate attributeName="cx" values="250;350;250" dur="14s" repeatCount="indefinite"/>
      <animate attributeName="cy" values="220;290;220" dur="14s" repeatCount="indefinite"/>
    </circle>
    <!-- Cyan Glow -->
    <circle cx="930" cy="380" r="210" fill="#06B6D4" opacity="0.03">
      <animate attributeName="cx" values="930;810;930" dur="16s" repeatCount="indefinite"/>
      <animate attributeName="cy" values="380;280;380" dur="16s" repeatCount="indefinite"/>
    </circle>
    <!-- Emerald Glow -->
    <circle cx="580" cy="500" r="170" fill="#10B981" opacity="0.02">
      <animate attributeName="cx" values="580;650;580" dur="12s" repeatCount="indefinite"/>
      <animate attributeName="cy" values="500;430;500" dur="12s" repeatCount="indefinite"/>
    </circle>
  </g>

  <!-- Grid Pattern Overlay -->
  <rect width="1180" height="610" rx="16" fill="url(#grid-pattern)"/>

  <!-- Vignette for Depth -->
  <rect width="1180" height="610" rx="16" fill="url(#bg-vignette)" pointer-events="none"/>

  <!-- Floating Particles -->
  <g opacity="0.25">
    <circle cx="120" cy="180" r="1.5" fill="#2563EB">
      <animate attributeName="cy" values="180;120;180" dur="8s" repeatCount="indefinite"/>
      <animate attributeName="opacity" values="0.2;0.8;0.2" dur="8s" repeatCount="indefinite"/>
    </circle>
    <circle cx="380" cy="480" r="2" fill="#06B6D4">
      <animate attributeName="cy" values="480;420;480" dur="10s" repeatCount="indefinite"/>
      <animate attributeName="opacity" values="0.1;0.9;0.1" dur="10s" repeatCount="indefinite"/>
    </circle>
    <circle cx="820" cy="110" r="1.5" fill="#10B981">
      <animate attributeName="cx" values="820;870;820" dur="9s" repeatCount="indefinite"/>
      <animate attributeName="opacity" values="0.3;0.7;0.3" dur="9s" repeatCount="indefinite"/>
    </circle>
    <circle cx="1060" cy="520" r="2" fill="#2563EB">
      <animate attributeName="cy" values="520;470;520" dur="7s" repeatCount="indefinite"/>
      <animate attributeName="opacity" values="0.2;0.8;0.2" dur="7s" repeatCount="indefinite"/>
    </circle>
  </g>

  <!-- Noise Overlay for Tactile Texture -->
  <rect width="1180" height="610" rx="16" filter="url(#noise-filter)" pointer-events="none"/>

  <!-- ======================== LEFT SIDE: ASCII PORTRAIT TERMINAL ======================== -->
  <!-- Card Container Shadow & Glow -->
  <rect x="40" y="40" width="400" height="530" rx="16" fill="none" filter="url(#card-shadow)" />

  <!-- Glass Card Background -->
  <rect x="40" y="40" width="400" height="530" rx="16" fill="#F8FAFC" fill-opacity="0.65"/>

  <!-- Left Side Header Info -->
  <text x="70" y="80" font-family="ui-monospace, monospace" font-size="11" font-weight="600" fill="#475569" letter-spacing="1">PORTRAIT_SYS_v1.0.8</text>
  <circle cx="360" cy="77" r="4.5" fill="#10B981" filter="url(#glow-light)">
    <animate attributeName="opacity" values="1;0.3;1" dur="1.5s" repeatCount="indefinite" />
  </circle>
  <text x="345" y="80" font-family="ui-monospace, monospace" font-size="9" fill="#10B981" text-anchor="end">ONLINE</text>

  <!-- Viewport Grid & Corner Brackets -->
  <rect x="68" y="115" width="344" height="295" rx="8" fill="none" stroke="rgba(15,23,42,0.02)" stroke-width="1"/>
  <!-- Target Crosshairs -->
  <path d="M 68 127 H 80 M 68 127 V 115 M 412 127 H 400 M 412 127 V 115 M 68 398 H 80 M 68 398 V 410 M 412 398 H 400 M 412 398 V 410" fill="none" stroke="#06B6D4" stroke-width="1.5" opacity="0.35"/>

  <!-- ASCII Portrait Wrapper with floating oscillation -->
  <g>
    <animateTransform attributeName="transform" type="translate" values="0 0; 0 -6; 0 0" dur="6s" repeatCount="indefinite" additive="sum"/>
    <!-- ASCII Art (Types Character-by-character via ClipPaths) -->
    <text x="240" y="165" font-family="ui-monospace, 'SFMono-Regular', Consolas, 'Liberation Mono', Menlo, monospace" font-size="13" font-weight="900" fill="url(#ascii-gradient)" xml:space="preserve" text-anchor="middle">
      <tspan x="240" dy="0" clip-path="url(#ascii-clip-1)">          ▄▄████████▄▄</tspan>
      <tspan x="240" dy="16" clip-path="url(#ascii-clip-2)">        ▄██████████████▄</tspan>
      <tspan x="240" dy="16" clip-path="url(#ascii-clip-3)">       ██████▀▀  ▀▀██████</tspan>
      <tspan x="240" dy="16" clip-path="url(#ascii-clip-4)">      ████▀   ▄██▄   ▀████</tspan>
      <tspan x="240" dy="16" clip-path="url(#ascii-clip-5)">     ████    ██████    ████</tspan>
      <tspan x="240" dy="16" clip-path="url(#ascii-clip-6)">     ████    ▀████▀    ████</tspan>
      <tspan x="240" dy="16" clip-path="url(#ascii-clip-7)">     ████              ████</tspan>
      <tspan x="240" dy="16" clip-path="url(#ascii-clip-8)">     ████    ▀████▀    ████</tspan>
      <tspan x="240" dy="16" clip-path="url(#ascii-clip-9)">     ████     ▀██▀     ████</tspan>
      <tspan x="240" dy="16" clip-path="url(#ascii-clip-10)">      ████▄          ▄████</tspan>
      <tspan x="240" dy="16" clip-path="url(#ascii-clip-11)">       ██████▄▄  ▄▄██████</tspan>
      <tspan x="240" dy="16" clip-path="url(#ascii-clip-12)">        ▀██████████████▀</tspan>
      <tspan x="240" dy="16" clip-path="url(#ascii-clip-13)">          ▀▀████████▀▀</tspan>
    </text>
  </g>

  <!-- Sweep Scanline -->
  <rect x="70" y="117" width="340" height="2" fill="#06B6D4" opacity="0.25" filter="url(#glow-light)">
    <animate attributeName="y" values="117; 408; 117" dur="6s" repeatCount="indefinite" />
  </rect>

  <!-- Left Side Console Diagnostics -->
  <text x="70" y="455" font-family="ui-monospace, monospace" font-size="11.5" fill="#475569" clip-path="url(#cmd-clip)">jarjis@avatar:~$ load --portrait</text>
  <g opacity="0">
    <animate attributeName="opacity" from="0" to="1" dur="0.1s" begin="1.4s" fill="freeze"/>
    <text x="70" y="485" font-family="ui-monospace, monospace" font-size="11.5" fill="#10B981">> PORTRAIT_LOADED [</text>
    <text x="202" y="485" font-family="ui-monospace, monospace" font-size="11.5" fill="#10B981">█
      <animate attributeName="opacity" values="1;0;1" dur="0.8s" repeatCount="indefinite"/>
    </text>
    <text x="212" y="485" font-family="ui-monospace, monospace" font-size="11.5" fill="#10B981">]</text>
  </g>
  <text x="70" y="525" font-family="ui-monospace, monospace" font-size="10" fill="#94A3B8" opacity="0">
    <animate attributeName="opacity" from="0" to="1" dur="0.3s" begin="1.7s" fill="freeze"/>
    CPU_USAGE: 14% | TEMP: 37.8°C | STACK: RUST/WASM
  </text>

  <!-- Glass Card Reflection & Border Shimmer -->
  <rect x="40" y="40" width="400" height="530" rx="16" fill="url(#card-reflection)" pointer-events="none" />
  <rect x="40" y="40" width="400" height="530" rx="16" fill="none" stroke="url(#border-shimmer-left)" stroke-width="1.2" pointer-events="none"/>


  <!-- ======================== RIGHT SIDE: TERMINAL WORKSPACE ======================== -->
  <!-- Card Container Shadow & Glow -->
  <rect x="470" y="40" width="670" height="530" rx="16" fill="none" filter="url(#card-shadow)" />

  <!-- Glass Card Background -->
  <rect x="470" y="40" width="670" height="530" rx="16" fill="#F8FAFC" fill-opacity="0.65"/>

  <!-- macOS Style Window Buttons -->
  <circle cx="505" cy="70" r="6" fill="#FF5F56"/>
  <circle cx="525" cy="70" r="6" fill="#FFBD2E"/>
  <circle cx="545" cy="70" r="6" fill="#27C93F"/>
  <text x="805" y="74" font-family="ui-monospace, monospace" font-size="11" fill="#94A3B8" text-anchor="middle">jarjis@lumora-sys: ~</text>

  <!-- Greeting Block -->
  <text x="510" y="118" font-family="system-ui, sans-serif" font-size="22" font-weight="600" fill="#475569" opacity="0">
    <animate attributeName="opacity" from="0" to="1" dur="0.5s" begin="0.1s" fill="freeze"/>
    Hi 👋
  </text>
  <text x="510" y="152" font-family="system-ui, sans-serif" font-size="34" font-weight="800" fill="url(#name-gradient)" opacity="0">
    <animate attributeName="opacity" from="0" to="1" dur="0.5s" begin="0.3s" fill="freeze"/>
    I'm Munshi Jarjis Alam
  </text>

  <!-- Animated Typing Text (Looping Carousel) -->
  <text x="510" y="193" font-family="ui-monospace, monospace" font-size="16" font-weight="700" fill="#2563EB">> </text>

  <!-- Phrase 1: Frontend Engineer -->
  <g opacity="1">
    <animate attributeName="opacity" values="1;1;0;0;0;1" keyTimes="0;0.199;0.2;0.999;1" dur="20s" repeatCount="indefinite"/>
    <text x="528" y="193" font-family="ui-monospace, monospace" font-size="16" font-weight="700" fill="#0F172A" clip-path="url(#phrase-clip-1)">Frontend Engineer</text>
  </g>
  <!-- Phrase 2: Full Stack Developer -->
  <g opacity="0">
    <animate attributeName="opacity" values="0;0;1;1;0;0" keyTimes="0;0.199;0.2;0.399;0.4;1" dur="20s" repeatCount="indefinite"/>
    <text x="528" y="193" font-family="ui-monospace, monospace" font-size="16" font-weight="700" fill="#0F172A" clip-path="url(#phrase-clip-2)">Full Stack Developer</text>
  </g>
  <!-- Phrase 3: Open Source Contributor -->
  <g opacity="0">
    <animate attributeName="opacity" values="0;0;1;1;0;0" keyTimes="0;0.399;0.4;0.599;0.6;1" dur="20s" repeatCount="indefinite"/>
    <text x="528" y="193" font-family="ui-monospace, monospace" font-size="16" font-weight="700" fill="#0F172A" clip-path="url(#phrase-clip-3)">Open Source Contributor</text>
  </g>
  <!-- Phrase 4: UI Engineer -->
  <g opacity="0">
    <animate attributeName="opacity" values="0;0;1;1;0;0" keyTimes="0;0.599;0.6;0.799;0.8;1" dur="20s" repeatCount="indefinite"/>
    <text x="528" y="193" font-family="ui-monospace, monospace" font-size="16" font-weight="700" fill="#0F172A" clip-path="url(#phrase-clip-4)">UI Engineer</text>
  </g>
  <!-- Phrase 5: AI Enthusiast -->
  <g opacity="0">
    <animate attributeName="opacity" values="0;0;1;1;0" keyTimes="0;0.799;0.8;0.999;1" dur="20s" repeatCount="indefinite"/>
    <text x="528" y="193" font-family="ui-monospace, monospace" font-size="16" font-weight="700" fill="#0F172A" clip-path="url(#phrase-clip-5)">AI Enthusiast</text>
  </g>

  <!-- Global Blinking / Moving Typing Cursor -->
  <rect y="177" width="8" height="19" fill="#2563EB" rx="1">
    <animate attributeName="opacity" values="1;0;1" dur="0.8s" repeatCount="indefinite"/>
    <animate attributeName="x" values="528; 693; 693; 528; 528; 720; 720; 528; 528; 750; 750; 528; 528; 638; 638; 528; 528; 654; 654; 528; 528" keyTimes="0; 0.06; 0.14; 0.18; 0.20; 0.26; 0.34; 0.38; 0.40; 0.46; 0.54; 0.58; 0.60; 0.66; 0.74; 0.78; 0.80; 0.86; 0.94; 0.98; 1" dur="20s" repeatCount="indefinite" />
  </rect>

  <!-- Terminal Info Block (Location, Education, Current Focus, etc.) -->
  <!-- Line 1: Location -->
  <g opacity="0">
    <animate attributeName="opacity" from="0" to="1" dur="0.4s" begin="0.5s" fill="freeze"/>
    <text x="510" y="238" font-family="system-ui, sans-serif" font-size="13" fill="#475569">📍</text>
    <text x="535" y="238" font-family="ui-monospace, monospace" font-size="13.5" font-weight="600" fill="#94A3B8">Location:</text>
    <text x="635" y="238" font-family="system-ui, sans-serif" font-size="13.5" font-weight="500" fill="#0F172A">West Bengal, India</text>
  </g>

  <!-- Line 2: Education -->
  <g opacity="0">
    <animate attributeName="opacity" from="0" to="1" dur="0.4s" begin="0.7s" fill="freeze"/>
    <text x="510" y="268" font-family="system-ui, sans-serif" font-size="13" fill="#475569">🎓</text>
    <text x="535" y="268" font-family="ui-monospace, monospace" font-size="13.5" font-weight="600" fill="#94A3B8">Education:</text>
    <text x="635" y="268" font-family="system-ui, sans-serif" font-size="13.5" font-weight="500" fill="#0F172A">B.Tech in Computer Science and Engineering</text>
  </g>

  <!-- Line 3: Current Focus -->
  <g opacity="0">
    <animate attributeName="opacity" from="0" to="1" dur="0.4s" begin="0.9s" fill="freeze"/>
    <text x="510" y="298" font-family="system-ui, sans-serif" font-size="13" fill="#475569">🚀</text>
    <text x="535" y="298" font-family="ui-monospace, monospace" font-size="13.5" font-weight="600" fill="#94A3B8">Focus:</text>
    <text x="635" y="298" font-family="system-ui, sans-serif" font-size="13.5" font-weight="500" fill="#0F172A">AI Agents, Systems Programming &amp; Modern UI/UX</text>
  </g>

  <!-- Line 4: Portfolio -->
  <g opacity="0">
    <animate attributeName="opacity" from="0" to="1" dur="0.4s" begin="1.1s" fill="freeze"/>
    <text x="510" y="328" font-family="system-ui, sans-serif" font-size="13" fill="#475569">🌐</text>
    <text x="535" y="328" font-family="ui-monospace, monospace" font-size="13.5" font-weight="600" fill="#94A3B8">Portfolio:</text>
    <text x="635" y="328" font-family="ui-monospace, monospace" font-size="13.5" font-weight="600" fill="#2563EB">github.com/Jarjis-Alam</text>
  </g>

  <!-- Line 5: Email -->
  <g opacity="0">
    <animate attributeName="opacity" from="0" to="1" dur="0.4s" begin="1.3s" fill="freeze"/>
    <text x="510" y="358" font-family="system-ui, sans-serif" font-size="13" fill="#475569">📧</text>
    <text x="535" y="358" font-family="ui-monospace, monospace" font-size="13.5" font-weight="600" fill="#94A3B8">Email:</text>
    <text x="635" y="358" font-family="ui-monospace, monospace" font-size="13.5" font-weight="600" fill="#10B981">jarjis.alam.cse@gmail.com</text>
  </g>


  <!-- ======================== SKILLS SECTION ======================== -->
  <g opacity="0">
    <animate attributeName="opacity" from="0" to="1" dur="0.4s" begin="1.5s" fill="freeze"/>
    <text x="510" y="405" font-family="system-ui, sans-serif" font-size="10.5" font-weight="700" fill="#475569" letter-spacing="1.5">SKILLS &amp; TECHNOLOGIES</text>
  </g>

  <!-- Skills Row 1 -->
  <!-- React -->
  <g class="skill-pill" opacity="0">
    <animate attributeName="opacity" from="0" to="1" dur="0.3s" begin="1.6s" fill="freeze"/>
    <rect x="510" y="420" width="65" height="26" rx="13"/>
    <text x="542.5" y="437" font-family="system-ui, sans-serif" font-size="11.5" font-weight="600" text-anchor="middle">React</text>
  </g>
  <!-- Next.js -->
  <g class="skill-pill" opacity="0">
    <animate attributeName="opacity" from="0" to="1" dur="0.3s" begin="1.7s" fill="freeze"/>
    <rect x="585" y="420" width="75" height="26" rx="13"/>
    <text x="622.5" y="437" font-family="system-ui, sans-serif" font-size="11.5" font-weight="600" text-anchor="middle">Next.js</text>
  </g>
  <!-- Node.js -->
  <g class="skill-pill" opacity="0">
    <animate attributeName="opacity" from="0" to="1" dur="0.3s" begin="1.8s" fill="freeze"/>
    <rect x="670" y="420" width="75" height="26" rx="13"/>
    <text x="707.5" y="437" font-family="system-ui, sans-serif" font-size="11.5" font-weight="600" text-anchor="middle">Node.js</text>
  </g>
  <!-- TypeScript -->
  <g class="skill-pill" opacity="0">
    <animate attributeName="opacity" from="0" to="1" dur="0.3s" begin="1.9s" fill="freeze"/>
    <rect x="755" y="420" width="95" height="26" rx="13"/>
    <text x="802.5" y="437" font-family="system-ui, sans-serif" font-size="11.5" font-weight="600" text-anchor="middle">TypeScript</text>
  </g>
  <!-- Tailwind -->
  <g class="skill-pill" opacity="0">
    <animate attributeName="opacity" from="0" to="1" dur="0.3s" begin="2.0s" fill="freeze"/>
    <rect x="860" y="420" width="80" height="26" rx="13"/>
    <text x="900" y="437" font-family="system-ui, sans-serif" font-size="11.5" font-weight="600" text-anchor="middle">Tailwind</text>
  </g>
  <!-- Python -->
  <g class="skill-pill" opacity="0">
    <animate attributeName="opacity" from="0" to="1" dur="0.3s" begin="2.1s" fill="freeze"/>
    <rect x="950" y="420" width="70" height="26" rx="13"/>
    <text x="985" y="437" font-family="system-ui, sans-serif" font-size="11.5" font-weight="600" text-anchor="middle">Python</text>
  </g>

  <!-- Skills Row 2 -->
  <!-- Docker -->
  <g class="skill-pill" opacity="0">
    <animate attributeName="opacity" from="0" to="1" dur="0.3s" begin="2.2s" fill="freeze"/>
    <rect x="510" y="458" width="70" height="26" rx="13"/>
    <text x="545" y="475" font-family="system-ui, sans-serif" font-size="11.5" font-weight="600" text-anchor="middle">Docker</text>
  </g>
  <!-- Postgres -->
  <g class="skill-pill" opacity="0">
    <animate attributeName="opacity" from="0" to="1" dur="0.3s" begin="2.3s" fill="freeze"/>
    <rect x="590" y="458" width="85" height="26" rx="13"/>
    <text x="632.5" y="475" font-family="system-ui, sans-serif" font-size="11.5" font-weight="600" text-anchor="middle">Postgres</text>
  </g>
  <!-- AWS -->
  <g class="skill-pill" opacity="0">
    <animate attributeName="opacity" from="0" to="1" dur="0.3s" begin="2.4s" fill="freeze"/>
    <rect x="685" y="458" width="60" height="26" rx="13"/>
    <text x="715" y="475" font-family="system-ui, sans-serif" font-size="11.5" font-weight="600" text-anchor="middle">AWS</text>
  </g>
  <!-- Git -->
  <g class="skill-pill" opacity="0">
    <animate attributeName="opacity" from="0" to="1" dur="0.3s" begin="2.5s" fill="freeze"/>
    <rect x="755" y="458" width="55" height="26" rx="13"/>
    <text x="782.5" y="475" font-family="system-ui, sans-serif" font-size="11.5" font-weight="600" text-anchor="middle">Git</text>
  </g>
  <!-- Figma -->
  <g class="skill-pill" opacity="0">
    <animate attributeName="opacity" from="0" to="1" dur="0.3s" begin="2.6s" fill="freeze"/>
    <rect x="820" y="458" width="70" height="26" rx="13"/>
    <text x="855" y="475" font-family="system-ui, sans-serif" font-size="11.5" font-weight="600" text-anchor="middle">Figma</text>
  </g>


  <!-- ======================== SOCIAL ICONS ======================== -->
  <!-- GitHub -->
  <g class="social-icon" transform="translate(510, 508)" opacity="0">
    <animate attributeName="opacity" from="0" to="1" dur="0.4s" begin="2.7s" fill="freeze"/>
    <circle cx="12" cy="12" r="17"/>
    <path d="M12 2C6.477 2 2 6.477 2 12c0 4.42 2.865 8.166 6.839 9.489.5.092.682-.217.682-.482 0-.237-.008-.866-.013-1.7-2.782.603-3.369-1.34-3.369-1.34-.454-1.156-1.11-1.464-1.11-1.464-.908-.62.069-.608.069-.608 1.003.07 1.531 1.032 1.531 1.032.892 1.53 2.341 1.087 2.91.831.092-.646.35-1.086.636-1.336-2.22-.253-4.555-1.11-4.555-4.943 0-1.091.39-1.984 1.029-2.683-.103-.253-.446-1.27.098-2.647 0 0 .84-.269 2.75 1.025A9.564 9.564 0 0112 6.844c.85.004 1.705.115 2.504.337 1.909-1.294 2.747-1.025 2.747-1.025.546 1.377.203 2.394.1 2.647.64.699 1.028 1.592 1.028 2.683 0 3.842-2.339 4.687-4.566 4.935.359.309.678.919.678 1.852 0 1.336-.012 2.415-.012 2.743 0 .267.18.579.688.481C19.137 20.162 22 16.418 22 12c0-5.523-4.477-10-10-10z" transform="scale(0.8) translate(3, 3)"/>
  </g>

  <!-- LinkedIn -->
  <g class="social-icon" transform="translate(555, 508)" opacity="0">
    <animate attributeName="opacity" from="0" to="1" dur="0.4s" begin="2.8s" fill="freeze"/>
    <circle cx="12" cy="12" r="17"/>
    <path d="M19 0h-14c-2.761 0-5 2.239-5 5v14c0 2.761 2.239 5 5 5h14c2.762 0 5-2.239 5-5v-14c0-2.761-2.238-5-5-5zm-11 19h-3v-11h3v11zm-1.5-12.268c-.966 0-1.75-.779-1.75-1.75s.784-1.75 1.75-1.75 1.75.779 1.75 1.75-.784 1.75-1.75 1.75zm13.5 12.268h-3v-5.604c0-3.368-4-3.113-4 0v5.604h-3v-11h3v1.765c1.396-2.586 7-2.777 7 2.476v6.759z" transform="scale(0.7) translate(5, 5)"/>
  </g>

  <!-- Twitter / X -->
  <g class="social-icon" transform="translate(600, 508)" opacity="0">
    <animate attributeName="opacity" from="0" to="1" dur="0.4s" begin="2.9s" fill="freeze"/>
    <circle cx="12" cy="12" r="17"/>
    <path d="M18.244 2.25h3.308l-7.227 8.26 8.502 11.24H16.17l-5.214-6.817L4.99 21.75H1.68l7.73-8.835L1.254 2.25H8.08l4.713 6.231zm-1.161 17.52h1.833L7.084 4.126H5.117z" transform="scale(0.72) translate(4.5, 4.5)"/>
  </g>

  <!-- Portfolio -->
  <g class="social-icon" transform="translate(645, 508)" opacity="0">
    <animate attributeName="opacity" from="0" to="1" dur="0.4s" begin="3.0s" fill="freeze"/>
    <circle cx="12" cy="12" r="17"/>
    <path d="M12 2a10 10 0 100 20 10 10 0 000-20zm7.56 5H16.43a14.24 14.24 0 00-1.87-2.61A8.02 8.02 0 0119.56 7zM12 4.04c.83 1.2 1.48 2.53 1.91 3.96h-3.82c.43-1.43 1.08-2.76 1.91-3.96zM4.26 14a7.82 7.82 0 010-4h3.38a16.52 16.52 0 000 4H4.26zm.18 2h3.12a14.24 14.24 0 001.87 2.61 8.02 8.02 0 01-4.99-2.61zm4.99-8H6.31a14.24 14.24 0 00-1.87-2.61A8.02 8.02 0 019.43 7zM12 19.96c-.83-1.2-1.48-2.53-1.91-3.96h3.82c-.43 1.43-1.08 2.76-1.91 3.96zM14.57 14H9.43a14.54 14.54 0 010-4h5.14a14.54 14.54 0 010 4zm.29 4.61c.82-.76 1.45-1.63 1.87-2.61h3.12a8.02 8.02 0 01-4.99 2.61zM16.43 14a16.52 16.52 0 000-4h3.38a7.82 7.82 0 010 4h-3.38z" transform="scale(0.8) translate(3, 3)"/>
  </g>

  <!-- Glass Card Reflection & Border Shimmer -->
  <rect x="470" y="40" width="670" height="530" rx="16" fill="url(#card-reflection)" pointer-events="none" />
  <rect x="470" y="40" width="670" height="530" rx="16" fill="none" stroke="url(#border-shimmer-right)" stroke-width="1.2" pointer-events="none"/>


  <!-- Outer Shimmer Border of the entire canvas -->
  <rect x="1.5" y="1.5" width="1177" height="607" rx="16" fill="none" stroke="url(#canvas-border-gradient)" stroke-width="2" pointer-events="none"/>
</svg>
